<mxfile host="app.diagrams.net" modified="2020-12-17T03:47:34.603Z" agent="5.0 (Windows NT 10.0; Win64; x64) AppleWebKit/537.36 (KHTML, like Gecko) Chrome/87.0.4280.88 Safari/537.36" etag="TkwPCcI0NIUHwoL71pLd" version="13.6.5" type="github" pages="22">
  <diagram id="n-BbdiELLYWb3FVW2_6k" name="第 1 页">
    <mxGraphModel dx="1422" dy="762" grid="1" gridSize="10" guides="1" tooltips="1" connect="1" arrows="1" fold="1" page="1" pageScale="1" pageWidth="827" pageHeight="1169" math="0" shadow="0">
      <root>
        <mxCell id="0" />
        <mxCell id="1" parent="0" />
        <mxCell id="ABUGFP2NVGiEVpPpZd0w-8" style="edgeStyle=orthogonalEdgeStyle;rounded=0;orthogonalLoop=1;jettySize=auto;html=1;exitX=0.5;exitY=0.5;exitDx=0;exitDy=0;exitPerimeter=0;entryX=0.5;entryY=0;entryDx=0;entryDy=0;entryPerimeter=0;" edge="1" parent="1" source="ABUGFP2NVGiEVpPpZd0w-2" target="ABUGFP2NVGiEVpPpZd0w-3">
          <mxGeometry relative="1" as="geometry" />
        </mxCell>
        <mxCell id="ABUGFP2NVGiEVpPpZd0w-21" value="代理" style="edgeLabel;html=1;align=center;verticalAlign=middle;resizable=0;points=[];" vertex="1" connectable="0" parent="ABUGFP2NVGiEVpPpZd0w-8">
          <mxGeometry x="0.15" y="1" relative="1" as="geometry">
            <mxPoint as="offset" />
          </mxGeometry>
        </mxCell>
        <mxCell id="ABUGFP2NVGiEVpPpZd0w-17" style="edgeStyle=orthogonalEdgeStyle;rounded=0;orthogonalLoop=1;jettySize=auto;html=1;exitX=0.5;exitY=0.5;exitDx=0;exitDy=0;exitPerimeter=0;entryX=0;entryY=0.5;entryDx=0;entryDy=0;" edge="1" parent="1" source="ABUGFP2NVGiEVpPpZd0w-2" target="ABUGFP2NVGiEVpPpZd0w-9">
          <mxGeometry relative="1" as="geometry">
            <Array as="points">
              <mxPoint x="200" y="160" />
              <mxPoint x="200" y="160" />
            </Array>
          </mxGeometry>
        </mxCell>
        <mxCell id="ABUGFP2NVGiEVpPpZd0w-2" value="专职检查员" style="shape=umlActor;verticalLabelPosition=bottom;verticalAlign=top;html=1;" vertex="1" parent="1">
          <mxGeometry x="80" y="130" width="30" height="60" as="geometry" />
        </mxCell>
        <mxCell id="ABUGFP2NVGiEVpPpZd0w-3" value="用户客户" style="shape=umlActor;verticalLabelPosition=bottom;verticalAlign=top;html=1;" vertex="1" parent="1">
          <mxGeometry x="30" y="270" width="30" height="60" as="geometry" />
        </mxCell>
        <mxCell id="ABUGFP2NVGiEVpPpZd0w-29" value="代理" style="edgeStyle=orthogonalEdgeStyle;rounded=0;orthogonalLoop=1;jettySize=auto;html=1;entryX=0.5;entryY=0.5;entryDx=0;entryDy=0;entryPerimeter=0;" edge="1" parent="1" source="ABUGFP2NVGiEVpPpZd0w-4" target="ABUGFP2NVGiEVpPpZd0w-5">
          <mxGeometry x="-0.5" relative="1" as="geometry">
            <Array as="points">
              <mxPoint x="675" y="240" />
              <mxPoint x="675" y="240" />
            </Array>
            <mxPoint as="offset" />
          </mxGeometry>
        </mxCell>
        <mxCell id="ABUGFP2NVGiEVpPpZd0w-30" style="edgeStyle=orthogonalEdgeStyle;rounded=0;orthogonalLoop=1;jettySize=auto;html=1;entryX=0.5;entryY=1;entryDx=0;entryDy=0;" edge="1" parent="1" source="ABUGFP2NVGiEVpPpZd0w-4" target="ABUGFP2NVGiEVpPpZd0w-16">
          <mxGeometry relative="1" as="geometry" />
        </mxCell>
        <mxCell id="ABUGFP2NVGiEVpPpZd0w-4" value="营业出纳" style="shape=umlActor;verticalLabelPosition=bottom;verticalAlign=top;html=1;" vertex="1" parent="1">
          <mxGeometry x="660" y="270" width="30" height="60" as="geometry" />
        </mxCell>
        <mxCell id="ABUGFP2NVGiEVpPpZd0w-5" value="用户客户" style="shape=umlActor;verticalLabelPosition=bottom;verticalAlign=top;html=1;" vertex="1" parent="1">
          <mxGeometry x="660" y="120" width="30" height="60" as="geometry" />
        </mxCell>
        <mxCell id="ABUGFP2NVGiEVpPpZd0w-7" value="代理" style="edgeStyle=orthogonalEdgeStyle;rounded=0;orthogonalLoop=1;jettySize=auto;html=1;exitX=0.5;exitY=0.5;exitDx=0;exitDy=0;exitPerimeter=0;" edge="1" parent="1" source="ABUGFP2NVGiEVpPpZd0w-6" target="ABUGFP2NVGiEVpPpZd0w-3">
          <mxGeometry relative="1" as="geometry">
            <Array as="points">
              <mxPoint x="95" y="300" />
            </Array>
          </mxGeometry>
        </mxCell>
        <mxCell id="ABUGFP2NVGiEVpPpZd0w-22" style="edgeStyle=orthogonalEdgeStyle;rounded=0;orthogonalLoop=1;jettySize=auto;html=1;exitX=0.5;exitY=0.5;exitDx=0;exitDy=0;exitPerimeter=0;entryX=0;entryY=0.5;entryDx=0;entryDy=0;" edge="1" parent="1" source="ABUGFP2NVGiEVpPpZd0w-6" target="ABUGFP2NVGiEVpPpZd0w-12">
          <mxGeometry relative="1" as="geometry" />
        </mxCell>
        <mxCell id="ABUGFP2NVGiEVpPpZd0w-23" style="edgeStyle=orthogonalEdgeStyle;rounded=0;orthogonalLoop=1;jettySize=auto;html=1;entryX=0;entryY=0.5;entryDx=0;entryDy=0;" edge="1" parent="1" source="ABUGFP2NVGiEVpPpZd0w-6" target="ABUGFP2NVGiEVpPpZd0w-11">
          <mxGeometry relative="1" as="geometry" />
        </mxCell>
        <mxCell id="ABUGFP2NVGiEVpPpZd0w-24" style="edgeStyle=orthogonalEdgeStyle;rounded=0;orthogonalLoop=1;jettySize=auto;html=1;" edge="1" parent="1" source="ABUGFP2NVGiEVpPpZd0w-6" target="ABUGFP2NVGiEVpPpZd0w-15">
          <mxGeometry relative="1" as="geometry" />
        </mxCell>
        <mxCell id="ABUGFP2NVGiEVpPpZd0w-25" style="edgeStyle=orthogonalEdgeStyle;rounded=0;orthogonalLoop=1;jettySize=auto;html=1;" edge="1" parent="1" source="ABUGFP2NVGiEVpPpZd0w-6" target="ABUGFP2NVGiEVpPpZd0w-14">
          <mxGeometry relative="1" as="geometry" />
        </mxCell>
        <mxCell id="ABUGFP2NVGiEVpPpZd0w-26" style="edgeStyle=orthogonalEdgeStyle;rounded=0;orthogonalLoop=1;jettySize=auto;html=1;entryX=0;entryY=0.5;entryDx=0;entryDy=0;" edge="1" parent="1" source="ABUGFP2NVGiEVpPpZd0w-6" target="ABUGFP2NVGiEVpPpZd0w-13">
          <mxGeometry relative="1" as="geometry" />
        </mxCell>
        <mxCell id="ABUGFP2NVGiEVpPpZd0w-27" style="edgeStyle=orthogonalEdgeStyle;rounded=0;orthogonalLoop=1;jettySize=auto;html=1;entryX=0;entryY=0.5;entryDx=0;entryDy=0;" edge="1" parent="1" source="ABUGFP2NVGiEVpPpZd0w-6" target="ABUGFP2NVGiEVpPpZd0w-9">
          <mxGeometry relative="1" as="geometry" />
        </mxCell>
        <mxCell id="ABUGFP2NVGiEVpPpZd0w-6" value="业务员" style="shape=umlActor;verticalLabelPosition=bottom;verticalAlign=top;html=1;" vertex="1" parent="1">
          <mxGeometry x="80" y="380" width="30" height="60" as="geometry" />
        </mxCell>
        <mxCell id="ABUGFP2NVGiEVpPpZd0w-9" value="申请临时用电" style="ellipse;whiteSpace=wrap;html=1;" vertex="1" parent="1">
          <mxGeometry x="230" y="135" width="120" height="50" as="geometry" />
        </mxCell>
        <mxCell id="ABUGFP2NVGiEVpPpZd0w-11" value="申请变更用电" style="ellipse;whiteSpace=wrap;html=1;" vertex="1" parent="1">
          <mxGeometry x="230" y="260" width="120" height="50" as="geometry" />
        </mxCell>
        <mxCell id="ABUGFP2NVGiEVpPpZd0w-12" value="申请永久用电" style="ellipse;whiteSpace=wrap;html=1;" vertex="1" parent="1">
          <mxGeometry x="230" y="200" width="120" height="50" as="geometry" />
        </mxCell>
        <mxCell id="ABUGFP2NVGiEVpPpZd0w-13" value="故障报修" style="ellipse;whiteSpace=wrap;html=1;" vertex="1" parent="1">
          <mxGeometry x="230" y="450" width="120" height="50" as="geometry" />
        </mxCell>
        <mxCell id="ABUGFP2NVGiEVpPpZd0w-14" value="申请销户" style="ellipse;whiteSpace=wrap;html=1;" vertex="1" parent="1">
          <mxGeometry x="230" y="390" width="120" height="50" as="geometry" />
        </mxCell>
        <mxCell id="ABUGFP2NVGiEVpPpZd0w-15" value="申请暂停用电" style="ellipse;whiteSpace=wrap;html=1;" vertex="1" parent="1">
          <mxGeometry x="230" y="330" width="120" height="50" as="geometry" />
        </mxCell>
        <mxCell id="ABUGFP2NVGiEVpPpZd0w-16" value="缴纳业务费用" style="ellipse;whiteSpace=wrap;html=1;" vertex="1" parent="1">
          <mxGeometry x="470" y="230" width="120" height="50" as="geometry" />
        </mxCell>
        <mxCell id="ABUGFP2NVGiEVpPpZd0w-34" value="&lt;span style=&quot;text-align: center&quot;&gt;此视图展示了用电客户服务边界各业务主角为达到用户客户服务目标而在边界内要做的事情。每件事情就是一个业务用例&lt;/span&gt;" style="shape=note;whiteSpace=wrap;html=1;size=14;verticalAlign=top;align=left;spacingTop=-6;" vertex="1" parent="1">
          <mxGeometry x="40" y="20" width="490" height="65" as="geometry" />
        </mxCell>
        <mxCell id="ABUGFP2NVGiEVpPpZd0w-36" value="申请各项业务本来是用户客户的事情。这里假设的业务是用户客户自己不直接参与系统，只填写纸质申请单，由业务员或专职检查员代理操作系统" style="shape=note;whiteSpace=wrap;html=1;size=14;verticalAlign=top;align=left;spacingTop=-6;" vertex="1" parent="1">
          <mxGeometry x="50" y="510" width="180" height="90" as="geometry" />
        </mxCell>
        <mxCell id="ABUGFP2NVGiEVpPpZd0w-43" style="edgeStyle=orthogonalEdgeStyle;rounded=0;orthogonalLoop=1;jettySize=auto;html=1;exitX=0;exitY=0.5;exitDx=0;exitDy=0;exitPerimeter=0;dashed=1;" edge="1" parent="1" source="ABUGFP2NVGiEVpPpZd0w-41">
          <mxGeometry relative="1" as="geometry">
            <mxPoint x="570" y="300" as="targetPoint" />
          </mxGeometry>
        </mxCell>
        <mxCell id="ABUGFP2NVGiEVpPpZd0w-41" value="交纳业务费本来是用户客户的事情。但这里假设的业务是用电客户去银行交费，银行提交交费记录，营业出纳将记录取回并录入系统。" style="shape=note;whiteSpace=wrap;html=1;size=14;verticalAlign=top;align=left;spacingTop=-6;" vertex="1" parent="1">
          <mxGeometry x="590" y="390" width="200" height="80" as="geometry" />
        </mxCell>
        <mxCell id="ABUGFP2NVGiEVpPpZd0w-42" style="edgeStyle=orthogonalEdgeStyle;rounded=0;orthogonalLoop=1;jettySize=auto;html=1;exitX=0.5;exitY=1;exitDx=0;exitDy=0;exitPerimeter=0;" edge="1" parent="1" source="ABUGFP2NVGiEVpPpZd0w-41" target="ABUGFP2NVGiEVpPpZd0w-41">
          <mxGeometry relative="1" as="geometry" />
        </mxCell>
        <mxCell id="ABUGFP2NVGiEVpPpZd0w-45" style="edgeStyle=orthogonalEdgeStyle;rounded=0;orthogonalLoop=1;jettySize=auto;html=1;dashed=1;exitX=0;exitY=0.5;exitDx=0;exitDy=0;exitPerimeter=0;" edge="1" parent="1" source="ABUGFP2NVGiEVpPpZd0w-36">
          <mxGeometry relative="1" as="geometry">
            <mxPoint x="90" y="360" as="targetPoint" />
            <mxPoint x="110" y="585" as="sourcePoint" />
            <Array as="points">
              <mxPoint x="20" y="555" />
            </Array>
          </mxGeometry>
        </mxCell>
      </root>
    </mxGraphModel>
  </diagram>
  <diagram id="7Y7XtiRaqqfFeoHiy2jX" name="1-Use Case View">
    <mxGraphModel dx="1422" dy="762" grid="1" gridSize="10" guides="1" tooltips="1" connect="1" arrows="1" fold="1" page="1" pageScale="1" pageWidth="827" pageHeight="1169" math="0" shadow="0">
      <root>
        <mxCell id="82itk5f9kikYcTvTgOAT-0" />
        <mxCell id="82itk5f9kikYcTvTgOAT-1" parent="82itk5f9kikYcTvTgOAT-0" />
        <mxCell id="uO-88xOM-3tRklaEHqHH-2" value="" style="edgeStyle=orthogonalEdgeStyle;rounded=0;orthogonalLoop=1;jettySize=auto;html=1;dashed=1;" edge="1" parent="82itk5f9kikYcTvTgOAT-1" source="uO-88xOM-3tRklaEHqHH-0" target="uO-88xOM-3tRklaEHqHH-1">
          <mxGeometry relative="1" as="geometry" />
        </mxCell>
        <UserObject label="01涉众分析" link="data:page/id,gtKJCcrtuGlcCFSpClWY" id="uO-88xOM-3tRklaEHqHH-0">
          <mxCell style="shape=folder;fontStyle=1;spacingTop=10;tabWidth=40;tabHeight=14;tabPosition=left;html=1;" vertex="1" parent="82itk5f9kikYcTvTgOAT-1">
            <mxGeometry x="349" y="90" width="130" height="100" as="geometry" />
          </mxCell>
        </UserObject>
        <mxCell id="uO-88xOM-3tRklaEHqHH-6" value="" style="edgeStyle=orthogonalEdgeStyle;rounded=0;orthogonalLoop=1;jettySize=auto;html=1;dashed=1;" edge="1" parent="82itk5f9kikYcTvTgOAT-1" source="uO-88xOM-3tRklaEHqHH-1" target="uO-88xOM-3tRklaEHqHH-5">
          <mxGeometry relative="1" as="geometry" />
        </mxCell>
        <mxCell id="uO-88xOM-3tRklaEHqHH-1" value="02业务分析" style="shape=folder;fontStyle=1;spacingTop=10;tabWidth=40;tabHeight=14;tabPosition=left;html=1;" vertex="1" parent="82itk5f9kikYcTvTgOAT-1">
          <mxGeometry x="349" y="270" width="130" height="100" as="geometry" />
        </mxCell>
        <mxCell id="uO-88xOM-3tRklaEHqHH-8" style="edgeStyle=orthogonalEdgeStyle;rounded=0;orthogonalLoop=1;jettySize=auto;html=1;exitX=0;exitY=0;exitDx=130;exitDy=57;exitPerimeter=0;entryX=0;entryY=0;entryDx=0;entryDy=57;entryPerimeter=0;dashed=1;" edge="1" parent="82itk5f9kikYcTvTgOAT-1" source="uO-88xOM-3tRklaEHqHH-3" target="uO-88xOM-3tRklaEHqHH-1">
          <mxGeometry relative="1" as="geometry" />
        </mxCell>
        <mxCell id="uO-88xOM-3tRklaEHqHH-3" value="04系统分析" style="shape=folder;fontStyle=1;spacingTop=10;tabWidth=40;tabHeight=14;tabPosition=left;html=1;" vertex="1" parent="82itk5f9kikYcTvTgOAT-1">
          <mxGeometry x="139" y="270" width="130" height="100" as="geometry" />
        </mxCell>
        <mxCell id="uO-88xOM-3tRklaEHqHH-5" value="03概念分析" style="shape=folder;fontStyle=1;spacingTop=10;tabWidth=40;tabHeight=14;tabPosition=left;html=1;" vertex="1" parent="82itk5f9kikYcTvTgOAT-1">
          <mxGeometry x="559" y="270" width="130" height="100" as="geometry" />
        </mxCell>
        <mxCell id="uO-88xOM-3tRklaEHqHH-11" style="edgeStyle=orthogonalEdgeStyle;rounded=0;orthogonalLoop=1;jettySize=auto;html=1;entryX=0.5;entryY=1;entryDx=0;entryDy=0;entryPerimeter=0;dashed=1;" edge="1" parent="82itk5f9kikYcTvTgOAT-1" source="uO-88xOM-3tRklaEHqHH-9" target="uO-88xOM-3tRklaEHqHH-1">
          <mxGeometry relative="1" as="geometry" />
        </mxCell>
        <mxCell id="uO-88xOM-3tRklaEHqHH-9" value="01BusinessAnalysis" style="shape=folder;fontStyle=1;spacingTop=10;tabWidth=40;tabHeight=14;tabPosition=left;html=1;" vertex="1" parent="82itk5f9kikYcTvTgOAT-1">
          <mxGeometry x="349" y="450" width="130" height="100" as="geometry" />
        </mxCell>
        <mxCell id="uO-88xOM-3tRklaEHqHH-14" style="edgeStyle=orthogonalEdgeStyle;rounded=0;orthogonalLoop=1;jettySize=auto;html=1;entryX=0.5;entryY=1;entryDx=0;entryDy=0;entryPerimeter=0;dashed=1;" edge="1" parent="82itk5f9kikYcTvTgOAT-1" source="uO-88xOM-3tRklaEHqHH-10" target="uO-88xOM-3tRklaEHqHH-5">
          <mxGeometry relative="1" as="geometry" />
        </mxCell>
        <mxCell id="uO-88xOM-3tRklaEHqHH-10" value="02ConceptAnalysis" style="shape=folder;fontStyle=1;spacingTop=10;tabWidth=40;tabHeight=14;tabPosition=left;html=1;" vertex="1" parent="82itk5f9kikYcTvTgOAT-1">
          <mxGeometry x="559" y="450" width="130" height="100" as="geometry" />
        </mxCell>
      </root>
    </mxGraphModel>
  </diagram>
  <diagram id="gtKJCcrtuGlcCFSpClWY" name="1.1-涉众分析">
    <mxGraphModel dx="1422" dy="762" grid="1" gridSize="10" guides="1" tooltips="1" connect="1" arrows="1" fold="1" page="1" pageScale="1" pageWidth="827" pageHeight="1169" math="0" shadow="0">
      <root>
        <mxCell id="lHQWM8sPitKCLS2y9TFR-0" />
        <mxCell id="lHQWM8sPitKCLS2y9TFR-1" parent="lHQWM8sPitKCLS2y9TFR-0" />
        <UserObject label="01涉众" link="data:page/id,AibMIFaEtcDjYKG1RGdu" id="I_DZp3KZgjIK8Zr7zKLM-0">
          <mxCell style="shape=folder;fontStyle=1;spacingTop=10;tabWidth=40;tabHeight=14;tabPosition=left;html=1;" vertex="1" parent="lHQWM8sPitKCLS2y9TFR-1">
            <mxGeometry x="139" y="140" width="130" height="100" as="geometry" />
          </mxCell>
        </UserObject>
        <UserObject label="02边界" link="data:page/id,GP8AIQqgV_GEhQHnc9Se" id="I_DZp3KZgjIK8Zr7zKLM-1">
          <mxCell style="shape=folder;fontStyle=1;spacingTop=10;tabWidth=40;tabHeight=14;tabPosition=left;html=1;" vertex="1" parent="lHQWM8sPitKCLS2y9TFR-1">
            <mxGeometry x="370" y="140" width="130" height="100" as="geometry" />
          </mxCell>
        </UserObject>
      </root>
    </mxGraphModel>
  </diagram>
  <diagram id="AibMIFaEtcDjYKG1RGdu" name="1.1.1-涉众">
    <mxGraphModel dx="1422" dy="762" grid="1" gridSize="10" guides="1" tooltips="1" connect="1" arrows="1" fold="1" page="1" pageScale="1" pageWidth="827" pageHeight="1169" math="0" shadow="0">
      <root>
        <mxCell id="Vc4wzDv27sTPI4XkQiIp-0" />
        <mxCell id="Vc4wzDv27sTPI4XkQiIp-1" parent="Vc4wzDv27sTPI4XkQiIp-0" />
        <mxCell id="Vc4wzDv27sTPI4XkQiIp-2" value="用户客户" style="shape=umlActor;verticalLabelPosition=bottom;verticalAlign=top;html=1;" vertex="1" parent="Vc4wzDv27sTPI4XkQiIp-1">
          <mxGeometry x="190" y="130" width="30" height="60" as="geometry" />
        </mxCell>
        <mxCell id="Vc4wzDv27sTPI4XkQiIp-3" value="高压用电客户" style="shape=umlActor;verticalLabelPosition=bottom;verticalAlign=top;html=1;" vertex="1" parent="Vc4wzDv27sTPI4XkQiIp-1">
          <mxGeometry x="260" y="250" width="30" height="60" as="geometry" />
        </mxCell>
        <mxCell id="Vc4wzDv27sTPI4XkQiIp-4" value="银行" style="shape=umlActor;verticalLabelPosition=bottom;verticalAlign=top;html=1;" vertex="1" parent="Vc4wzDv27sTPI4XkQiIp-1">
          <mxGeometry x="500" y="410" width="30" height="60" as="geometry" />
        </mxCell>
        <mxCell id="Vc4wzDv27sTPI4XkQiIp-5" value="电表抄表部门" style="shape=umlActor;verticalLabelPosition=bottom;verticalAlign=top;html=1;" vertex="1" parent="Vc4wzDv27sTPI4XkQiIp-1">
          <mxGeometry x="380" y="410" width="30" height="60" as="geometry" />
        </mxCell>
        <mxCell id="Vc4wzDv27sTPI4XkQiIp-6" value="账务管理部门" style="shape=umlActor;verticalLabelPosition=bottom;verticalAlign=top;html=1;" vertex="1" parent="Vc4wzDv27sTPI4XkQiIp-1">
          <mxGeometry x="270" y="410" width="30" height="60" as="geometry" />
        </mxCell>
        <mxCell id="Vc4wzDv27sTPI4XkQiIp-7" value="账务部门" style="shape=umlActor;verticalLabelPosition=bottom;verticalAlign=top;html=1;" vertex="1" parent="Vc4wzDv27sTPI4XkQiIp-1">
          <mxGeometry x="180" y="410" width="30" height="60" as="geometry" />
        </mxCell>
        <mxCell id="Vc4wzDv27sTPI4XkQiIp-8" value="低压用电客户" style="shape=umlActor;verticalLabelPosition=bottom;verticalAlign=top;html=1;" vertex="1" parent="Vc4wzDv27sTPI4XkQiIp-1">
          <mxGeometry x="130" y="250" width="30" height="60" as="geometry" />
        </mxCell>
        <mxCell id="Vc4wzDv27sTPI4XkQiIp-9" value="电费管理部门" style="shape=umlActor;verticalLabelPosition=bottom;verticalAlign=top;html=1;" vertex="1" parent="Vc4wzDv27sTPI4XkQiIp-1">
          <mxGeometry x="380" y="130" width="30" height="60" as="geometry" />
        </mxCell>
        <mxCell id="Vc4wzDv27sTPI4XkQiIp-10" value="现场施工部门" style="shape=umlActor;verticalLabelPosition=bottom;verticalAlign=top;html=1;" vertex="1" parent="Vc4wzDv27sTPI4XkQiIp-1">
          <mxGeometry x="500" y="130" width="30" height="60" as="geometry" />
        </mxCell>
        <mxCell id="Vc4wzDv27sTPI4XkQiIp-11" value="资产管理部门" style="shape=umlActor;verticalLabelPosition=bottom;verticalAlign=top;html=1;" vertex="1" parent="Vc4wzDv27sTPI4XkQiIp-1">
          <mxGeometry x="180" y="525" width="30" height="60" as="geometry" />
        </mxCell>
        <mxCell id="Vc4wzDv27sTPI4XkQiIp-16" value="用电检查部门" style="shape=umlActor;verticalLabelPosition=bottom;verticalAlign=top;html=1;" vertex="1" parent="Vc4wzDv27sTPI4XkQiIp-1">
          <mxGeometry x="380" y="530" width="30" height="60" as="geometry" />
        </mxCell>
        <mxCell id="Vc4wzDv27sTPI4XkQiIp-17" value="业务服务部门" style="shape=umlActor;verticalLabelPosition=bottom;verticalAlign=top;html=1;" vertex="1" parent="Vc4wzDv27sTPI4XkQiIp-1">
          <mxGeometry x="270" y="525" width="30" height="60" as="geometry" />
        </mxCell>
        <mxCell id="Vc4wzDv27sTPI4XkQiIp-19" value="" style="endArrow=block;endFill=0;endSize=12;html=1;exitX=0.5;exitY=0;exitDx=0;exitDy=0;exitPerimeter=0;" edge="1" parent="Vc4wzDv27sTPI4XkQiIp-1" source="Vc4wzDv27sTPI4XkQiIp-8">
          <mxGeometry width="160" relative="1" as="geometry">
            <mxPoint x="80" y="230" as="sourcePoint" />
            <mxPoint x="200" y="220" as="targetPoint" />
          </mxGeometry>
        </mxCell>
        <mxCell id="Vc4wzDv27sTPI4XkQiIp-20" value="" style="endArrow=block;endFill=0;endSize=12;html=1;exitX=0.5;exitY=0;exitDx=0;exitDy=0;exitPerimeter=0;" edge="1" parent="Vc4wzDv27sTPI4XkQiIp-1" source="Vc4wzDv27sTPI4XkQiIp-3">
          <mxGeometry width="160" relative="1" as="geometry">
            <mxPoint x="155" y="260" as="sourcePoint" />
            <mxPoint x="210" y="220" as="targetPoint" />
          </mxGeometry>
        </mxCell>
      </root>
    </mxGraphModel>
  </diagram>
  <diagram id="GP8AIQqgV_GEhQHnc9Se" name="1.1.2-边界">
    <mxGraphModel dx="1422" dy="762" grid="1" gridSize="10" guides="1" tooltips="1" connect="1" arrows="1" fold="1" page="1" pageScale="1" pageWidth="827" pageHeight="1169" math="0" shadow="0">
      <root>
        <mxCell id="r8PsVL2QvRPQdulHysKQ-0" />
        <mxCell id="r8PsVL2QvRPQdulHysKQ-1" parent="r8PsVL2QvRPQdulHysKQ-0" />
        <UserObject label="用电客户服务" link="data:page/id,_dOuSOPYbTybu6q-gSKC" id="5Cf_WU9oBuDh8o0K2cb--0">
          <mxCell style="shape=folder;fontStyle=1;spacingTop=10;tabWidth=40;tabHeight=14;tabPosition=left;html=1;" vertex="1" parent="r8PsVL2QvRPQdulHysKQ-1">
            <mxGeometry x="139" y="140" width="130" height="100" as="geometry" />
          </mxCell>
        </UserObject>
        <UserObject label="内部管理" link="data:page/id,W2SvLj5sb8X9iOmrMdw5" id="5Cf_WU9oBuDh8o0K2cb--1">
          <mxCell style="shape=folder;fontStyle=1;spacingTop=10;tabWidth=40;tabHeight=14;tabPosition=left;html=1;" vertex="1" parent="r8PsVL2QvRPQdulHysKQ-1">
            <mxGeometry x="360" y="140" width="130" height="100" as="geometry" />
          </mxCell>
        </UserObject>
        <UserObject label="用电检查" link="data:page/id,i54iUHjoUI-BuRUn3NnB" id="5Cf_WU9oBuDh8o0K2cb--2">
          <mxCell style="shape=folder;fontStyle=1;spacingTop=10;tabWidth=40;tabHeight=14;tabPosition=left;html=1;" vertex="1" parent="r8PsVL2QvRPQdulHysKQ-1">
            <mxGeometry x="139" y="300" width="130" height="100" as="geometry" />
          </mxCell>
        </UserObject>
        <UserObject label="资产管理" link="data:page/id,DaORnhbMMcntvhBbtmBS" id="5Cf_WU9oBuDh8o0K2cb--3">
          <mxCell style="shape=folder;fontStyle=1;spacingTop=10;tabWidth=40;tabHeight=14;tabPosition=left;html=1;" vertex="1" parent="r8PsVL2QvRPQdulHysKQ-1">
            <mxGeometry x="360" y="300" width="130" height="100" as="geometry" />
          </mxCell>
        </UserObject>
        <UserObject label="营业财务" link="data:page/id,RSJFKUdZD3g5xKBTDeb8" id="5Cf_WU9oBuDh8o0K2cb--4">
          <mxCell style="shape=folder;fontStyle=1;spacingTop=10;tabWidth=40;tabHeight=14;tabPosition=left;html=1;" vertex="1" parent="r8PsVL2QvRPQdulHysKQ-1">
            <mxGeometry x="139" y="450" width="130" height="100" as="geometry" />
          </mxCell>
        </UserObject>
      </root>
    </mxGraphModel>
  </diagram>
  <diagram id="_dOuSOPYbTybu6q-gSKC" name="1.1.2.1-用户客户业务边界">
    <mxGraphModel dx="1422" dy="762" grid="1" gridSize="10" guides="1" tooltips="1" connect="1" arrows="1" fold="1" page="1" pageScale="1" pageWidth="827" pageHeight="1169" math="0" shadow="0">
      <root>
        <mxCell id="Ao0vO5EHGDF5Zy8MI1r3-0" />
        <mxCell id="Ao0vO5EHGDF5Zy8MI1r3-1" parent="Ao0vO5EHGDF5Zy8MI1r3-0" />
        <mxCell id="Ao0vO5EHGDF5Zy8MI1r3-2" value="用户客户" style="shape=umlActor;verticalLabelPosition=bottom;verticalAlign=top;html=1;" vertex="1" parent="Ao0vO5EHGDF5Zy8MI1r3-1">
          <mxGeometry x="140" y="170" width="30" height="60" as="geometry" />
        </mxCell>
        <mxCell id="Ao0vO5EHGDF5Zy8MI1r3-3" value="低压用户客户" style="shape=umlActor;verticalLabelPosition=bottom;verticalAlign=top;html=1;" vertex="1" parent="Ao0vO5EHGDF5Zy8MI1r3-1">
          <mxGeometry x="70" y="330" width="30" height="60" as="geometry" />
        </mxCell>
        <mxCell id="Ao0vO5EHGDF5Zy8MI1r3-4" value="高压用户客户" style="shape=umlActor;verticalLabelPosition=bottom;verticalAlign=top;html=1;" vertex="1" parent="Ao0vO5EHGDF5Zy8MI1r3-1">
          <mxGeometry x="180" y="330" width="30" height="60" as="geometry" />
        </mxCell>
        <mxCell id="Ao0vO5EHGDF5Zy8MI1r3-7" value="" style="endArrow=block;dashed=1;endFill=0;endSize=12;html=1;" edge="1" parent="Ao0vO5EHGDF5Zy8MI1r3-1">
          <mxGeometry width="160" relative="1" as="geometry">
            <mxPoint x="100" y="320" as="sourcePoint" />
            <mxPoint x="140" y="260" as="targetPoint" />
          </mxGeometry>
        </mxCell>
        <mxCell id="Ao0vO5EHGDF5Zy8MI1r3-8" value="" style="endArrow=block;dashed=1;endFill=0;endSize=12;html=1;" edge="1" parent="Ao0vO5EHGDF5Zy8MI1r3-1">
          <mxGeometry width="160" relative="1" as="geometry">
            <mxPoint x="190" y="320" as="sourcePoint" />
            <mxPoint x="170" y="260" as="targetPoint" />
          </mxGeometry>
        </mxCell>
        <mxCell id="Ao0vO5EHGDF5Zy8MI1r3-9" value="银行" style="shape=umlActor;verticalLabelPosition=bottom;verticalAlign=top;html=1;" vertex="1" parent="Ao0vO5EHGDF5Zy8MI1r3-1">
          <mxGeometry x="710" y="260" width="30" height="60" as="geometry" />
        </mxCell>
        <mxCell id="Ao0vO5EHGDF5Zy8MI1r3-12" value="用电客户服务业务边界&lt;br&gt;&lt;br&gt;目标：为用户客户办理业务自动化服务，提高办事效率，方便客户，为客户提供更好的服务" style="shape=note;whiteSpace=wrap;html=1;size=14;verticalAlign=top;align=left;spacingTop=-6;" vertex="1" parent="Ao0vO5EHGDF5Zy8MI1r3-1">
          <mxGeometry x="300" y="110" width="320" height="440" as="geometry" />
        </mxCell>
      </root>
    </mxGraphModel>
  </diagram>
  <diagram id="W2SvLj5sb8X9iOmrMdw5" name="1.1.2.2-内部管理业务边界">
    <mxGraphModel dx="1422" dy="762" grid="1" gridSize="10" guides="1" tooltips="1" connect="1" arrows="1" fold="1" page="1" pageScale="1" pageWidth="827" pageHeight="1169" math="0" shadow="0">
      <root>
        <mxCell id="oZAzYraGrXiT_r35gXAO-0" />
        <mxCell id="oZAzYraGrXiT_r35gXAO-1" parent="oZAzYraGrXiT_r35gXAO-0" />
        <mxCell id="oZAzYraGrXiT_r35gXAO-2" value="账务管理部门" style="shape=umlActor;verticalLabelPosition=bottom;verticalAlign=top;html=1;" vertex="1" parent="oZAzYraGrXiT_r35gXAO-1">
          <mxGeometry x="100" y="130" width="30" height="60" as="geometry" />
        </mxCell>
        <mxCell id="oZAzYraGrXiT_r35gXAO-3" value="电表抄表部门" style="shape=umlActor;verticalLabelPosition=bottom;verticalAlign=top;html=1;" vertex="1" parent="oZAzYraGrXiT_r35gXAO-1">
          <mxGeometry x="100" y="250" width="30" height="60" as="geometry" />
        </mxCell>
        <mxCell id="oZAzYraGrXiT_r35gXAO-4" value="电费管理部门" style="shape=umlActor;verticalLabelPosition=bottom;verticalAlign=top;html=1;" vertex="1" parent="oZAzYraGrXiT_r35gXAO-1">
          <mxGeometry x="100" y="370" width="30" height="60" as="geometry" />
        </mxCell>
        <mxCell id="oZAzYraGrXiT_r35gXAO-5" value="资产管理部门" style="shape=umlActor;verticalLabelPosition=bottom;verticalAlign=top;html=1;" vertex="1" parent="oZAzYraGrXiT_r35gXAO-1">
          <mxGeometry x="100" y="480" width="30" height="60" as="geometry" />
        </mxCell>
        <mxCell id="oZAzYraGrXiT_r35gXAO-6" value="内部管理业务边界&lt;br&gt;&lt;br&gt;目标：规范供电企业内部管理，提高工作效率和管理技能；" style="shape=note;whiteSpace=wrap;html=1;size=14;verticalAlign=top;align=left;spacingTop=-6;" vertex="1" parent="oZAzYraGrXiT_r35gXAO-1">
          <mxGeometry x="230" y="150" width="350" height="450" as="geometry" />
        </mxCell>
        <mxCell id="oZAzYraGrXiT_r35gXAO-7" value="现场施工部门" style="shape=umlActor;verticalLabelPosition=bottom;verticalAlign=top;html=1;" vertex="1" parent="oZAzYraGrXiT_r35gXAO-1">
          <mxGeometry x="690" y="130" width="30" height="60" as="geometry" />
        </mxCell>
        <mxCell id="oZAzYraGrXiT_r35gXAO-8" value="业务服务部门" style="shape=umlActor;verticalLabelPosition=bottom;verticalAlign=top;html=1;" vertex="1" parent="oZAzYraGrXiT_r35gXAO-1">
          <mxGeometry x="690" y="250" width="30" height="60" as="geometry" />
        </mxCell>
        <mxCell id="oZAzYraGrXiT_r35gXAO-9" value="用电检查部门" style="shape=umlActor;verticalLabelPosition=bottom;verticalAlign=top;html=1;" vertex="1" parent="oZAzYraGrXiT_r35gXAO-1">
          <mxGeometry x="690" y="370" width="30" height="60" as="geometry" />
        </mxCell>
      </root>
    </mxGraphModel>
  </diagram>
  <diagram id="i54iUHjoUI-BuRUn3NnB" name="1.1.2.3-用电检查管理业务边界">
    <mxGraphModel dx="1422" dy="762" grid="1" gridSize="10" guides="1" tooltips="1" connect="1" arrows="1" fold="1" page="1" pageScale="1" pageWidth="827" pageHeight="1169" math="0" shadow="0">
      <root>
        <mxCell id="hHuHI7hH3Xs49kNEuRco-0" />
        <mxCell id="hHuHI7hH3Xs49kNEuRco-1" parent="hHuHI7hH3Xs49kNEuRco-0" />
        <mxCell id="hHuHI7hH3Xs49kNEuRco-2" value="现场施工部门" style="shape=umlActor;verticalLabelPosition=bottom;verticalAlign=top;html=1;" vertex="1" parent="hHuHI7hH3Xs49kNEuRco-1">
          <mxGeometry x="120" y="140" width="30" height="60" as="geometry" />
        </mxCell>
        <mxCell id="hHuHI7hH3Xs49kNEuRco-3" value="业务服务部门" style="shape=umlActor;verticalLabelPosition=bottom;verticalAlign=top;html=1;" vertex="1" parent="hHuHI7hH3Xs49kNEuRco-1">
          <mxGeometry x="120" y="300" width="30" height="60" as="geometry" />
        </mxCell>
        <mxCell id="hHuHI7hH3Xs49kNEuRco-4" value="用电检查管理业务边界&lt;br&gt;&lt;br&gt;目标：做好用电检查工作，保障用电安全；" style="shape=note;whiteSpace=wrap;html=1;size=14;verticalAlign=top;align=left;spacingTop=-6;" vertex="1" parent="hHuHI7hH3Xs49kNEuRco-1">
          <mxGeometry x="240" y="140" width="300" height="360" as="geometry" />
        </mxCell>
        <mxCell id="hHuHI7hH3Xs49kNEuRco-5" value="用电检查部门" style="shape=umlActor;verticalLabelPosition=bottom;verticalAlign=top;html=1;" vertex="1" parent="hHuHI7hH3Xs49kNEuRco-1">
          <mxGeometry x="640" y="140" width="30" height="60" as="geometry" />
        </mxCell>
      </root>
    </mxGraphModel>
  </diagram>
  <diagram id="RSJFKUdZD3g5xKBTDeb8" name="1.1.2.4-营业财务管理业务边界">
    <mxGraphModel dx="1422" dy="762" grid="1" gridSize="10" guides="1" tooltips="1" connect="1" arrows="1" fold="1" page="1" pageScale="1" pageWidth="827" pageHeight="1169" math="0" shadow="0">
      <root>
        <mxCell id="_6ci5PaKeZemAHOb5rLC-0" />
        <mxCell id="_6ci5PaKeZemAHOb5rLC-1" parent="_6ci5PaKeZemAHOb5rLC-0" />
        <mxCell id="_6ci5PaKeZemAHOb5rLC-2" value="银行" style="shape=umlActor;verticalLabelPosition=bottom;verticalAlign=top;html=1;" vertex="1" parent="_6ci5PaKeZemAHOb5rLC-1">
          <mxGeometry x="110" y="160" width="30" height="60" as="geometry" />
        </mxCell>
        <mxCell id="_6ci5PaKeZemAHOb5rLC-3" value="电费管理部门" style="shape=umlActor;verticalLabelPosition=bottom;verticalAlign=top;html=1;" vertex="1" parent="_6ci5PaKeZemAHOb5rLC-1">
          <mxGeometry x="110" y="340" width="30" height="60" as="geometry" />
        </mxCell>
        <mxCell id="_6ci5PaKeZemAHOb5rLC-4" value="营业财务管理业务边界&lt;br&gt;&lt;br&gt;目标：规范化财管管理，提高电费发行效率，减少人为差错；" style="shape=note;whiteSpace=wrap;html=1;size=14;verticalAlign=top;align=left;spacingTop=-6;" vertex="1" parent="_6ci5PaKeZemAHOb5rLC-1">
          <mxGeometry x="230" y="120" width="330" height="450" as="geometry" />
        </mxCell>
        <mxCell id="_6ci5PaKeZemAHOb5rLC-5" value="电表抄表部门" style="shape=umlActor;verticalLabelPosition=bottom;verticalAlign=top;html=1;" vertex="1" parent="_6ci5PaKeZemAHOb5rLC-1">
          <mxGeometry x="670" y="160" width="30" height="60" as="geometry" />
        </mxCell>
        <mxCell id="_6ci5PaKeZemAHOb5rLC-6" value="财务部门" style="shape=umlActor;verticalLabelPosition=bottom;verticalAlign=top;html=1;" vertex="1" parent="_6ci5PaKeZemAHOb5rLC-1">
          <mxGeometry x="670" y="340" width="30" height="60" as="geometry" />
        </mxCell>
      </root>
    </mxGraphModel>
  </diagram>
  <diagram id="DaORnhbMMcntvhBbtmBS" name="1.1.2.5-资产管理业务边界">
    <mxGraphModel dx="1422" dy="762" grid="1" gridSize="10" guides="1" tooltips="1" connect="1" arrows="1" fold="1" page="1" pageScale="1" pageWidth="827" pageHeight="1169" math="0" shadow="0">
      <root>
        <mxCell id="Zwft16yzsTqPkC7avIMa-0" />
        <mxCell id="Zwft16yzsTqPkC7avIMa-1" parent="Zwft16yzsTqPkC7avIMa-0" />
        <mxCell id="Zwft16yzsTqPkC7avIMa-2" value="现场施工部门" style="shape=umlActor;verticalLabelPosition=bottom;verticalAlign=top;html=1;" vertex="1" parent="Zwft16yzsTqPkC7avIMa-1">
          <mxGeometry x="120" y="140" width="30" height="60" as="geometry" />
        </mxCell>
        <mxCell id="Zwft16yzsTqPkC7avIMa-3" value="业务服务部门" style="shape=umlActor;verticalLabelPosition=bottom;verticalAlign=top;html=1;" vertex="1" parent="Zwft16yzsTqPkC7avIMa-1">
          <mxGeometry x="120" y="290" width="30" height="60" as="geometry" />
        </mxCell>
        <mxCell id="Zwft16yzsTqPkC7avIMa-4" value="电表抄表部门" style="shape=umlActor;verticalLabelPosition=bottom;verticalAlign=top;html=1;" vertex="1" parent="Zwft16yzsTqPkC7avIMa-1">
          <mxGeometry x="120" y="420" width="30" height="60" as="geometry" />
        </mxCell>
        <mxCell id="Zwft16yzsTqPkC7avIMa-5" value="资产管理业务边界&lt;br&gt;&lt;br&gt;目标：管理好供电企业资产，提高资产使用率和设备可靠性；" style="shape=note;whiteSpace=wrap;html=1;size=14;verticalAlign=top;align=left;spacingTop=-6;" vertex="1" parent="Zwft16yzsTqPkC7avIMa-1">
          <mxGeometry x="240" y="110" width="320" height="510" as="geometry" />
        </mxCell>
        <mxCell id="Zwft16yzsTqPkC7avIMa-6" value="用电检查部门" style="shape=umlActor;verticalLabelPosition=bottom;verticalAlign=top;html=1;" vertex="1" parent="Zwft16yzsTqPkC7avIMa-1">
          <mxGeometry x="670" y="140" width="30" height="60" as="geometry" />
        </mxCell>
        <mxCell id="Zwft16yzsTqPkC7avIMa-7" value="资产管理部门" style="shape=umlActor;verticalLabelPosition=bottom;verticalAlign=top;html=1;" vertex="1" parent="Zwft16yzsTqPkC7avIMa-1">
          <mxGeometry x="670" y="290" width="30" height="60" as="geometry" />
        </mxCell>
      </root>
    </mxGraphModel>
  </diagram>
  <diagram id="mD1Pt6F9pggu3QcFnYJL" name="1.2-业务分析">
    <mxGraphModel dx="1422" dy="762" grid="1" gridSize="10" guides="1" tooltips="1" connect="1" arrows="1" fold="1" page="1" pageScale="1" pageWidth="827" pageHeight="1169" math="0" shadow="0">
      <root>
        <mxCell id="51JAFG1YuwBWY-Jccesy-0" />
        <mxCell id="51JAFG1YuwBWY-Jccesy-1" parent="51JAFG1YuwBWY-Jccesy-0" />
        <mxCell id="51JAFG1YuwBWY-Jccesy-2" value="业务主角" style="shape=folder;fontStyle=1;spacingTop=10;tabWidth=40;tabHeight=14;tabPosition=left;html=1;" vertex="1" parent="51JAFG1YuwBWY-Jccesy-1">
          <mxGeometry x="120" y="140" width="70" height="50" as="geometry" />
        </mxCell>
        <mxCell id="51JAFG1YuwBWY-Jccesy-3" value="业务用例" style="shape=folder;fontStyle=1;spacingTop=10;tabWidth=40;tabHeight=14;tabPosition=left;html=1;" vertex="1" parent="51JAFG1YuwBWY-Jccesy-1">
          <mxGeometry x="280" y="140" width="70" height="50" as="geometry" />
        </mxCell>
      </root>
    </mxGraphModel>
  </diagram>
  <diagram id="pasZ5ducVM8Tuys9cYBz" name="1.2.1-业务主角">
    <mxGraphModel dx="1422" dy="762" grid="1" gridSize="10" guides="1" tooltips="1" connect="1" arrows="1" fold="1" page="1" pageScale="1" pageWidth="827" pageHeight="1169" math="0" shadow="0">
      <root>
        <mxCell id="r_X6azzw7oRM6m4Fm2Vj-0" />
        <mxCell id="r_X6azzw7oRM6m4Fm2Vj-1" parent="r_X6azzw7oRM6m4Fm2Vj-0" />
        <mxCell id="uyn0ZZso9ehUwjoCverD-0" value="财务和电费管理&lt;br&gt;业务主角" style="shape=folder;fontStyle=1;spacingTop=10;tabWidth=40;tabHeight=14;tabPosition=left;html=1;" vertex="1" parent="r_X6azzw7oRM6m4Fm2Vj-1">
          <mxGeometry x="180" y="150" width="90" height="70" as="geometry" />
        </mxCell>
        <mxCell id="uyn0ZZso9ehUwjoCverD-5" value="用电检查&lt;br&gt;业务主角" style="shape=folder;fontStyle=1;spacingTop=10;tabWidth=40;tabHeight=14;tabPosition=left;html=1;" vertex="1" parent="r_X6azzw7oRM6m4Fm2Vj-1">
          <mxGeometry x="414" y="300" width="90" height="70" as="geometry" />
        </mxCell>
        <mxCell id="uyn0ZZso9ehUwjoCverD-6" value="内部管理&lt;br&gt;业务主角" style="shape=folder;fontStyle=1;spacingTop=10;tabWidth=40;tabHeight=14;tabPosition=left;html=1;" vertex="1" parent="r_X6azzw7oRM6m4Fm2Vj-1">
          <mxGeometry x="414" y="150" width="90" height="70" as="geometry" />
        </mxCell>
        <mxCell id="uyn0ZZso9ehUwjoCverD-7" value="资产管理&lt;br&gt;业务主角" style="shape=folder;fontStyle=1;spacingTop=10;tabWidth=40;tabHeight=14;tabPosition=left;html=1;" vertex="1" parent="r_X6azzw7oRM6m4Fm2Vj-1">
          <mxGeometry x="290" y="450" width="90" height="70" as="geometry" />
        </mxCell>
        <mxCell id="uyn0ZZso9ehUwjoCverD-8" value="客户服务&lt;br&gt;业务主角" style="shape=folder;fontStyle=1;spacingTop=10;tabWidth=40;tabHeight=14;tabPosition=left;html=1;" vertex="1" parent="r_X6azzw7oRM6m4Fm2Vj-1">
          <mxGeometry x="180" y="300" width="90" height="70" as="geometry" />
        </mxCell>
      </root>
    </mxGraphModel>
  </diagram>
  <diagram id="nbe3B0ZNVFVnuqg8fxfy" name="1.2.1.1-财务电费管理业务主角">
    <mxGraphModel dx="1422" dy="762" grid="1" gridSize="10" guides="1" tooltips="1" connect="1" arrows="1" fold="1" page="1" pageScale="1" pageWidth="827" pageHeight="1169" math="0" shadow="0">
      <root>
        <mxCell id="GCT8Qq3vEyhQ7A7uXs77-0" />
        <mxCell id="GCT8Qq3vEyhQ7A7uXs77-1" parent="GCT8Qq3vEyhQ7A7uXs77-0" />
        <mxCell id="GCT8Qq3vEyhQ7A7uXs77-2" value="营业会计" style="shape=umlActor;verticalLabelPosition=bottom;verticalAlign=top;html=1;" vertex="1" parent="GCT8Qq3vEyhQ7A7uXs77-1">
          <mxGeometry x="170" y="250" width="30" height="60" as="geometry" />
        </mxCell>
        <mxCell id="GCT8Qq3vEyhQ7A7uXs77-3" value="电费收费员" style="shape=umlActor;verticalLabelPosition=bottom;verticalAlign=top;html=1;" vertex="1" parent="GCT8Qq3vEyhQ7A7uXs77-1">
          <mxGeometry x="520" y="250" width="30" height="60" as="geometry" />
        </mxCell>
        <mxCell id="GCT8Qq3vEyhQ7A7uXs77-4" value="电费发行员" style="shape=umlActor;verticalLabelPosition=bottom;verticalAlign=top;html=1;" vertex="1" parent="GCT8Qq3vEyhQ7A7uXs77-1">
          <mxGeometry x="340" y="250" width="30" height="60" as="geometry" />
        </mxCell>
        <mxCell id="GCT8Qq3vEyhQ7A7uXs77-5" value="电费班长" style="shape=umlActor;verticalLabelPosition=bottom;verticalAlign=top;html=1;" vertex="1" parent="GCT8Qq3vEyhQ7A7uXs77-1">
          <mxGeometry x="520" y="420" width="30" height="60" as="geometry" />
        </mxCell>
        <mxCell id="GCT8Qq3vEyhQ7A7uXs77-6" value="抄表班长" style="shape=umlActor;verticalLabelPosition=bottom;verticalAlign=top;html=1;" vertex="1" parent="GCT8Qq3vEyhQ7A7uXs77-1">
          <mxGeometry x="340" y="610" width="30" height="60" as="geometry" />
        </mxCell>
        <mxCell id="GCT8Qq3vEyhQ7A7uXs77-7" value="抄表内勤" style="shape=umlActor;verticalLabelPosition=bottom;verticalAlign=top;html=1;" vertex="1" parent="GCT8Qq3vEyhQ7A7uXs77-1">
          <mxGeometry x="340" y="420" width="30" height="60" as="geometry" />
        </mxCell>
        <mxCell id="GCT8Qq3vEyhQ7A7uXs77-8" value="营业出纳" style="shape=umlActor;verticalLabelPosition=bottom;verticalAlign=top;html=1;" vertex="1" parent="GCT8Qq3vEyhQ7A7uXs77-1">
          <mxGeometry x="170" y="420" width="30" height="60" as="geometry" />
        </mxCell>
        <mxCell id="GCT8Qq3vEyhQ7A7uXs77-10" value="此图展示了参与财务与电费管理的业务主角" style="shape=note;whiteSpace=wrap;html=1;size=14;verticalAlign=top;align=left;spacingTop=-6;" vertex="1" parent="GCT8Qq3vEyhQ7A7uXs77-1">
          <mxGeometry x="130" y="120" width="420" height="80" as="geometry" />
        </mxCell>
      </root>
    </mxGraphModel>
  </diagram>
  <diagram id="bmxMXAHIbcIlTeC1Mclg" name="1.2.1.2-内部管理业务主角">
    <mxGraphModel dx="1422" dy="762" grid="1" gridSize="10" guides="1" tooltips="1" connect="1" arrows="1" fold="1" page="1" pageScale="1" pageWidth="827" pageHeight="1169" math="0" shadow="0">
      <root>
        <mxCell id="wkSCUwgWuhpvdOvtOgqk-0" />
        <mxCell id="wkSCUwgWuhpvdOvtOgqk-1" parent="wkSCUwgWuhpvdOvtOgqk-0" />
        <mxCell id="wkSCUwgWuhpvdOvtOgqk-2" value="此视图展示了参与内部管理系统的业务主角；&lt;br&gt;其中：&lt;br&gt;系统管理员代理其他业务主角行使人员、权限管理部分的业务职能；" style="shape=note;whiteSpace=wrap;html=1;size=14;verticalAlign=top;align=left;spacingTop=-6;" vertex="1" parent="wkSCUwgWuhpvdOvtOgqk-1">
          <mxGeometry x="130" y="60" width="490" height="80" as="geometry" />
        </mxCell>
        <mxCell id="wkSCUwgWuhpvdOvtOgqk-3" value="电费班长" style="shape=umlActor;verticalLabelPosition=bottom;verticalAlign=top;html=1;" vertex="1" parent="wkSCUwgWuhpvdOvtOgqk-1">
          <mxGeometry x="150" y="190" width="30" height="60" as="geometry" />
        </mxCell>
        <mxCell id="wkSCUwgWuhpvdOvtOgqk-4" value="业务班长" style="shape=umlActor;verticalLabelPosition=bottom;verticalAlign=top;html=1;" vertex="1" parent="wkSCUwgWuhpvdOvtOgqk-1">
          <mxGeometry x="150" y="330" width="30" height="60" as="geometry" />
        </mxCell>
        <mxCell id="wkSCUwgWuhpvdOvtOgqk-5" value="资产班长" style="shape=umlActor;verticalLabelPosition=bottom;verticalAlign=top;html=1;" vertex="1" parent="wkSCUwgWuhpvdOvtOgqk-1">
          <mxGeometry x="270" y="190" width="30" height="60" as="geometry" />
        </mxCell>
        <mxCell id="wkSCUwgWuhpvdOvtOgqk-6" value="抄表班长" style="shape=umlActor;verticalLabelPosition=bottom;verticalAlign=top;html=1;" vertex="1" parent="wkSCUwgWuhpvdOvtOgqk-1">
          <mxGeometry x="270" y="330" width="30" height="60" as="geometry" />
        </mxCell>
        <mxCell id="wkSCUwgWuhpvdOvtOgqk-7" value="检查班长" style="shape=umlActor;verticalLabelPosition=bottom;verticalAlign=top;html=1;" vertex="1" parent="wkSCUwgWuhpvdOvtOgqk-1">
          <mxGeometry x="380" y="190" width="30" height="60" as="geometry" />
        </mxCell>
        <mxCell id="wkSCUwgWuhpvdOvtOgqk-8" value="财务主任" style="shape=umlActor;verticalLabelPosition=bottom;verticalAlign=top;html=1;" vertex="1" parent="wkSCUwgWuhpvdOvtOgqk-1">
          <mxGeometry x="380" y="330" width="30" height="60" as="geometry" />
        </mxCell>
        <mxCell id="wkSCUwgWuhpvdOvtOgqk-9" value="现场施工班长" style="shape=umlActor;verticalLabelPosition=bottom;verticalAlign=top;html=1;" vertex="1" parent="wkSCUwgWuhpvdOvtOgqk-1">
          <mxGeometry x="500" y="190" width="30" height="60" as="geometry" />
        </mxCell>
        <mxCell id="wkSCUwgWuhpvdOvtOgqk-10" value="用电主任" style="shape=umlActor;verticalLabelPosition=bottom;verticalAlign=top;html=1;" vertex="1" parent="wkSCUwgWuhpvdOvtOgqk-1">
          <mxGeometry x="500" y="330" width="30" height="60" as="geometry" />
        </mxCell>
        <mxCell id="wkSCUwgWuhpvdOvtOgqk-11" value="系统管理员" style="shape=umlActor;verticalLabelPosition=bottom;verticalAlign=top;html=1;" vertex="1" parent="wkSCUwgWuhpvdOvtOgqk-1">
          <mxGeometry x="330" y="480" width="30" height="60" as="geometry" />
        </mxCell>
      </root>
    </mxGraphModel>
  </diagram>
  <diagram id="o3LBwW8f2K0XGG1CN3BN" name="1.2.1.3-客户服务业务主角">
    <mxGraphModel dx="1422" dy="762" grid="1" gridSize="10" guides="1" tooltips="1" connect="1" arrows="1" fold="1" page="1" pageScale="1" pageWidth="827" pageHeight="1169" math="0" shadow="0">
      <root>
        <mxCell id="q0iFuH_9EkB8n3xmRiFH-0" />
        <mxCell id="q0iFuH_9EkB8n3xmRiFH-1" parent="q0iFuH_9EkB8n3xmRiFH-0" />
        <mxCell id="q0iFuH_9EkB8n3xmRiFH-2" value="用电客户" style="shape=umlActor;verticalLabelPosition=bottom;verticalAlign=top;html=1;" vertex="1" parent="q0iFuH_9EkB8n3xmRiFH-1">
          <mxGeometry x="250" y="230" width="30" height="60" as="geometry" />
        </mxCell>
        <mxCell id="q0iFuH_9EkB8n3xmRiFH-3" value="用电检查员" style="shape=umlActor;verticalLabelPosition=bottom;verticalAlign=top;html=1;" vertex="1" parent="q0iFuH_9EkB8n3xmRiFH-1">
          <mxGeometry x="400" y="230" width="30" height="60" as="geometry" />
        </mxCell>
        <mxCell id="q0iFuH_9EkB8n3xmRiFH-4" value="银行" style="shape=umlActor;verticalLabelPosition=bottom;verticalAlign=top;html=1;" vertex="1" parent="q0iFuH_9EkB8n3xmRiFH-1">
          <mxGeometry x="530" y="230" width="30" height="60" as="geometry" />
        </mxCell>
        <mxCell id="q0iFuH_9EkB8n3xmRiFH-5" value="业务员" style="shape=umlActor;verticalLabelPosition=bottom;verticalAlign=top;html=1;" vertex="1" parent="q0iFuH_9EkB8n3xmRiFH-1">
          <mxGeometry x="180" y="370" width="30" height="60" as="geometry" />
        </mxCell>
        <mxCell id="q0iFuH_9EkB8n3xmRiFH-6" value="专职检查员" style="shape=umlActor;verticalLabelPosition=bottom;verticalAlign=top;html=1;" vertex="1" parent="q0iFuH_9EkB8n3xmRiFH-1">
          <mxGeometry x="330" y="370" width="30" height="60" as="geometry" />
        </mxCell>
        <mxCell id="q0iFuH_9EkB8n3xmRiFH-7" value="业务出纳" style="shape=umlActor;verticalLabelPosition=bottom;verticalAlign=top;html=1;" vertex="1" parent="q0iFuH_9EkB8n3xmRiFH-1">
          <mxGeometry x="530" y="370" width="30" height="60" as="geometry" />
        </mxCell>
        <mxCell id="q0iFuH_9EkB8n3xmRiFH-8" value="代理" style="endArrow=block;dashed=1;endFill=0;endSize=12;html=1;exitX=0.5;exitY=0;exitDx=0;exitDy=0;exitPerimeter=0;" edge="1" parent="q0iFuH_9EkB8n3xmRiFH-1" source="q0iFuH_9EkB8n3xmRiFH-5">
          <mxGeometry width="160" relative="1" as="geometry">
            <mxPoint x="120" y="350" as="sourcePoint" />
            <mxPoint x="250" y="310" as="targetPoint" />
          </mxGeometry>
        </mxCell>
        <mxCell id="q0iFuH_9EkB8n3xmRiFH-9" value="代理" style="endArrow=block;dashed=1;endFill=0;endSize=12;html=1;exitX=0.5;exitY=0;exitDx=0;exitDy=0;exitPerimeter=0;" edge="1" parent="q0iFuH_9EkB8n3xmRiFH-1" source="q0iFuH_9EkB8n3xmRiFH-6">
          <mxGeometry width="160" relative="1" as="geometry">
            <mxPoint x="205" y="380" as="sourcePoint" />
            <mxPoint x="270" y="310" as="targetPoint" />
          </mxGeometry>
        </mxCell>
        <mxCell id="q0iFuH_9EkB8n3xmRiFH-10" value="代理" style="endArrow=block;dashed=1;endFill=0;endSize=12;html=1;exitX=0.5;exitY=0;exitDx=0;exitDy=0;exitPerimeter=0;" edge="1" parent="q0iFuH_9EkB8n3xmRiFH-1">
          <mxGeometry width="160" relative="1" as="geometry">
            <mxPoint x="345" y="370" as="sourcePoint" />
            <mxPoint x="400" y="310" as="targetPoint" />
          </mxGeometry>
        </mxCell>
        <mxCell id="q0iFuH_9EkB8n3xmRiFH-11" value="" style="endArrow=block;dashed=1;endFill=0;endSize=12;html=1;" edge="1" parent="q0iFuH_9EkB8n3xmRiFH-1">
          <mxGeometry width="160" relative="1" as="geometry">
            <mxPoint x="545" y="360" as="sourcePoint" />
            <mxPoint x="545" y="310" as="targetPoint" />
          </mxGeometry>
        </mxCell>
        <mxCell id="q0iFuH_9EkB8n3xmRiFH-12" value="代理" style="edgeLabel;html=1;align=center;verticalAlign=middle;resizable=0;points=[];" vertex="1" connectable="0" parent="q0iFuH_9EkB8n3xmRiFH-11">
          <mxGeometry x="-0.4" y="1" relative="1" as="geometry">
            <mxPoint as="offset" />
          </mxGeometry>
        </mxCell>
        <mxCell id="q0iFuH_9EkB8n3xmRiFH-13" value="此视图展示了参与用电客户管理系统的业务主角；&lt;br&gt;其中：&lt;br&gt;1-业务员和专职检查员代理用户客户行使涉众利益；&lt;br&gt;2-营业出纳代理银行行使涉众利益；" style="shape=note;whiteSpace=wrap;html=1;size=14;verticalAlign=top;align=left;spacingTop=-6;" vertex="1" parent="q0iFuH_9EkB8n3xmRiFH-1">
          <mxGeometry x="135" y="60" width="560" height="100" as="geometry" />
        </mxCell>
      </root>
    </mxGraphModel>
  </diagram>
  <diagram id="zkbZ0YxpsVAMb_ztuKNz" name="1.2.1.4-用电检查业务主角">
    <mxGraphModel dx="1422" dy="762" grid="1" gridSize="10" guides="1" tooltips="1" connect="1" arrows="1" fold="1" page="1" pageScale="1" pageWidth="827" pageHeight="1169" math="0" shadow="0">
      <root>
        <mxCell id="-c8alOvnq-AYU5wNTWdK-0" />
        <mxCell id="-c8alOvnq-AYU5wNTWdK-1" parent="-c8alOvnq-AYU5wNTWdK-0" />
        <mxCell id="-c8alOvnq-AYU5wNTWdK-2" value="检查班长" style="shape=umlActor;verticalLabelPosition=bottom;verticalAlign=top;html=1;" vertex="1" parent="-c8alOvnq-AYU5wNTWdK-1">
          <mxGeometry x="150" y="360" width="30" height="60" as="geometry" />
        </mxCell>
        <mxCell id="-c8alOvnq-AYU5wNTWdK-3" value="检查员" style="shape=umlActor;verticalLabelPosition=bottom;verticalAlign=top;html=1;" vertex="1" parent="-c8alOvnq-AYU5wNTWdK-1">
          <mxGeometry x="280" y="230" width="30" height="60" as="geometry" />
        </mxCell>
        <mxCell id="-c8alOvnq-AYU5wNTWdK-4" value="检查内勤" style="shape=umlActor;verticalLabelPosition=bottom;verticalAlign=top;html=1;" vertex="1" parent="-c8alOvnq-AYU5wNTWdK-1">
          <mxGeometry x="280" y="490" width="30" height="60" as="geometry" />
        </mxCell>
        <mxCell id="-c8alOvnq-AYU5wNTWdK-5" value="业务员" style="shape=umlActor;verticalLabelPosition=bottom;verticalAlign=top;html=1;" vertex="1" parent="-c8alOvnq-AYU5wNTWdK-1">
          <mxGeometry x="490" y="235" width="30" height="60" as="geometry" />
        </mxCell>
        <mxCell id="-c8alOvnq-AYU5wNTWdK-6" value="专职检查员" style="shape=umlActor;verticalLabelPosition=bottom;verticalAlign=top;html=1;" vertex="1" parent="-c8alOvnq-AYU5wNTWdK-1">
          <mxGeometry x="490" y="495" width="30" height="60" as="geometry" />
        </mxCell>
        <mxCell id="-c8alOvnq-AYU5wNTWdK-7" value="此视图展示了参与用电检查系统的业务主角；&lt;br&gt;其中：&lt;br&gt;1-检查内勤代理检查员使用计算机；&lt;br&gt;2-特殊客户的特殊业务，专职检查员可代理业务员行使业务受理职能；" style="shape=note;whiteSpace=wrap;html=1;size=14;verticalAlign=top;align=left;spacingTop=-6;" vertex="1" parent="-c8alOvnq-AYU5wNTWdK-1">
          <mxGeometry x="140" y="50" width="480" height="90" as="geometry" />
        </mxCell>
        <mxCell id="-c8alOvnq-AYU5wNTWdK-8" value="" style="endArrow=block;dashed=1;endFill=0;endSize=12;html=1;exitX=0.5;exitY=0;exitDx=0;exitDy=0;exitPerimeter=0;" edge="1" parent="-c8alOvnq-AYU5wNTWdK-1" source="-c8alOvnq-AYU5wNTWdK-4">
          <mxGeometry width="160" relative="1" as="geometry">
            <mxPoint x="250" y="410" as="sourcePoint" />
            <mxPoint x="295" y="320" as="targetPoint" />
          </mxGeometry>
        </mxCell>
        <mxCell id="-c8alOvnq-AYU5wNTWdK-9" value="" style="endArrow=block;dashed=1;endFill=0;endSize=12;html=1;exitX=0.5;exitY=0;exitDx=0;exitDy=0;exitPerimeter=0;" edge="1" parent="-c8alOvnq-AYU5wNTWdK-1">
          <mxGeometry width="160" relative="1" as="geometry">
            <mxPoint x="504.5" y="495" as="sourcePoint" />
            <mxPoint x="504.5" y="325" as="targetPoint" />
          </mxGeometry>
        </mxCell>
      </root>
    </mxGraphModel>
  </diagram>
  <diagram id="yiYlZw2JpcqeKyikdQL_" name="1.2.1.5-资产管理业务主角">
    <mxGraphModel dx="1422" dy="762" grid="1" gridSize="10" guides="1" tooltips="1" connect="1" arrows="1" fold="1" page="1" pageScale="1" pageWidth="827" pageHeight="1169" math="0" shadow="0">
      <root>
        <mxCell id="3z9UX5bUdh7BZz8T382q-0" />
        <mxCell id="3z9UX5bUdh7BZz8T382q-1" parent="3z9UX5bUdh7BZz8T382q-0" />
        <mxCell id="4D3UYLI7rz-TRosxl0UB-0" value="资产班长" style="shape=umlActor;verticalLabelPosition=bottom;verticalAlign=top;html=1;" vertex="1" parent="3z9UX5bUdh7BZz8T382q-1">
          <mxGeometry x="180" y="320" width="30" height="60" as="geometry" />
        </mxCell>
        <mxCell id="4D3UYLI7rz-TRosxl0UB-1" value="资产检修员" style="shape=umlActor;verticalLabelPosition=bottom;verticalAlign=top;html=1;" vertex="1" parent="3z9UX5bUdh7BZz8T382q-1">
          <mxGeometry x="320" y="320" width="30" height="60" as="geometry" />
        </mxCell>
        <mxCell id="4D3UYLI7rz-TRosxl0UB-2" value="资产管理员" style="shape=umlActor;verticalLabelPosition=bottom;verticalAlign=top;html=1;" vertex="1" parent="3z9UX5bUdh7BZz8T382q-1">
          <mxGeometry x="480" y="320" width="30" height="60" as="geometry" />
        </mxCell>
        <mxCell id="4D3UYLI7rz-TRosxl0UB-3" value="此视图展示了参与资产管理系统的业务主角；" style="shape=note;whiteSpace=wrap;html=1;size=14;verticalAlign=top;align=left;spacingTop=-6;" vertex="1" parent="3z9UX5bUdh7BZz8T382q-1">
          <mxGeometry x="150" y="150" width="450" height="110" as="geometry" />
        </mxCell>
      </root>
    </mxGraphModel>
  </diagram>
  <diagram id="n5-m30WMzkRWLX1uzxlO" name="1.2.2-业务用例">
    <mxGraphModel dx="1422" dy="762" grid="1" gridSize="10" guides="1" tooltips="1" connect="1" arrows="1" fold="1" page="1" pageScale="1" pageWidth="827" pageHeight="1169" math="0" shadow="0">
      <root>
        <mxCell id="2VyESNhXVyTh9ONiSKeq-0" />
        <mxCell id="2VyESNhXVyTh9ONiSKeq-1" parent="2VyESNhXVyTh9ONiSKeq-0" />
        <mxCell id="WUFqwYiFrpGLNRoBGOEA-0" value="用户客户服务" style="shape=folder;fontStyle=1;spacingTop=10;tabWidth=40;tabHeight=14;tabPosition=left;html=1;" vertex="1" parent="2VyESNhXVyTh9ONiSKeq-1">
          <mxGeometry x="120" y="170" width="70" height="50" as="geometry" />
        </mxCell>
        <mxCell id="WUFqwYiFrpGLNRoBGOEA-1" value="内部管理" style="shape=folder;fontStyle=1;spacingTop=10;tabWidth=40;tabHeight=14;tabPosition=left;html=1;" vertex="1" parent="2VyESNhXVyTh9ONiSKeq-1">
          <mxGeometry x="310" y="170" width="70" height="50" as="geometry" />
        </mxCell>
        <mxCell id="WUFqwYiFrpGLNRoBGOEA-2" value="资产管理" style="shape=folder;fontStyle=1;spacingTop=10;tabWidth=40;tabHeight=14;tabPosition=left;html=1;" vertex="1" parent="2VyESNhXVyTh9ONiSKeq-1">
          <mxGeometry x="520" y="170" width="70" height="50" as="geometry" />
        </mxCell>
        <mxCell id="WUFqwYiFrpGLNRoBGOEA-3" value="主角业务&lt;br&gt;用例视图" style="shape=folder;fontStyle=1;spacingTop=10;tabWidth=40;tabHeight=14;tabPosition=left;html=1;" vertex="1" parent="2VyESNhXVyTh9ONiSKeq-1">
          <mxGeometry x="510" y="370" width="70" height="50" as="geometry" />
        </mxCell>
        <mxCell id="WUFqwYiFrpGLNRoBGOEA-4" value="用电检查" style="shape=folder;fontStyle=1;spacingTop=10;tabWidth=40;tabHeight=14;tabPosition=left;html=1;" vertex="1" parent="2VyESNhXVyTh9ONiSKeq-1">
          <mxGeometry x="310" y="370" width="70" height="50" as="geometry" />
        </mxCell>
        <mxCell id="WUFqwYiFrpGLNRoBGOEA-5" value="营业财务" style="shape=folder;fontStyle=1;spacingTop=10;tabWidth=40;tabHeight=14;tabPosition=left;html=1;" vertex="1" parent="2VyESNhXVyTh9ONiSKeq-1">
          <mxGeometry x="120" y="370" width="70" height="50" as="geometry" />
        </mxCell>
      </root>
    </mxGraphModel>
  </diagram>
  <diagram id="l9vLL35gsYPhNlnhbYwf" name="1.2.2.1-用电客户服务业务概要视图">
    <mxGraphModel dx="1422" dy="762" grid="1" gridSize="10" guides="1" tooltips="1" connect="1" arrows="1" fold="1" page="1" pageScale="1" pageWidth="827" pageHeight="1169" math="0" shadow="0">
      <root>
        <mxCell id="LyMcBpUSQc7Vq5nO5CaE-0" />
        <mxCell id="LyMcBpUSQc7Vq5nO5CaE-1" parent="LyMcBpUSQc7Vq5nO5CaE-0" />
        <mxCell id="LyMcBpUSQc7Vq5nO5CaE-2" value="用电客户" style="shape=umlActor;verticalLabelPosition=bottom;verticalAlign=top;html=1;" vertex="1" parent="LyMcBpUSQc7Vq5nO5CaE-1">
          <mxGeometry x="50" y="380" width="30" height="60" as="geometry" />
        </mxCell>
        <mxCell id="LyMcBpUSQc7Vq5nO5CaE-3" value="专职检查员" style="shape=umlActor;verticalLabelPosition=bottom;verticalAlign=top;html=1;" vertex="1" parent="LyMcBpUSQc7Vq5nO5CaE-1">
          <mxGeometry x="150" y="270" width="30" height="60" as="geometry" />
        </mxCell>
        <mxCell id="LyMcBpUSQc7Vq5nO5CaE-4" value="业务员" style="shape=umlActor;verticalLabelPosition=bottom;verticalAlign=top;html=1;" vertex="1" parent="LyMcBpUSQc7Vq5nO5CaE-1">
          <mxGeometry x="150" y="480" width="30" height="60" as="geometry" />
        </mxCell>
        <mxCell id="LyMcBpUSQc7Vq5nO5CaE-5" value="申请临时用电" style="ellipse;whiteSpace=wrap;html=1;" vertex="1" parent="LyMcBpUSQc7Vq5nO5CaE-1">
          <mxGeometry x="280" y="160" width="140" height="70" as="geometry" />
        </mxCell>
        <mxCell id="LyMcBpUSQc7Vq5nO5CaE-6" value="申请永久用电" style="ellipse;whiteSpace=wrap;html=1;" vertex="1" parent="LyMcBpUSQc7Vq5nO5CaE-1">
          <mxGeometry x="280" y="260" width="140" height="70" as="geometry" />
        </mxCell>
        <mxCell id="LyMcBpUSQc7Vq5nO5CaE-7" value="申请变更用电" style="ellipse;whiteSpace=wrap;html=1;" vertex="1" parent="LyMcBpUSQc7Vq5nO5CaE-1">
          <mxGeometry x="280" y="360" width="140" height="70" as="geometry" />
        </mxCell>
        <mxCell id="LyMcBpUSQc7Vq5nO5CaE-8" value="申请暂停用电" style="ellipse;whiteSpace=wrap;html=1;" vertex="1" parent="LyMcBpUSQc7Vq5nO5CaE-1">
          <mxGeometry x="280" y="450" width="140" height="70" as="geometry" />
        </mxCell>
        <mxCell id="LyMcBpUSQc7Vq5nO5CaE-9" value="申请销户" style="ellipse;whiteSpace=wrap;html=1;" vertex="1" parent="LyMcBpUSQc7Vq5nO5CaE-1">
          <mxGeometry x="280" y="550" width="140" height="70" as="geometry" />
        </mxCell>
        <mxCell id="LyMcBpUSQc7Vq5nO5CaE-10" value="故障报修" style="ellipse;whiteSpace=wrap;html=1;" vertex="1" parent="LyMcBpUSQc7Vq5nO5CaE-1">
          <mxGeometry x="280" y="650" width="140" height="70" as="geometry" />
        </mxCell>
        <mxCell id="LyMcBpUSQc7Vq5nO5CaE-11" value="交纳业务费用" style="ellipse;whiteSpace=wrap;html=1;" vertex="1" parent="LyMcBpUSQc7Vq5nO5CaE-1">
          <mxGeometry x="490" y="360" width="140" height="70" as="geometry" />
        </mxCell>
        <mxCell id="LyMcBpUSQc7Vq5nO5CaE-12" value="营业出纳" style="shape=umlActor;verticalLabelPosition=bottom;verticalAlign=top;html=1;" vertex="1" parent="LyMcBpUSQc7Vq5nO5CaE-1">
          <mxGeometry x="740" y="365" width="30" height="60" as="geometry" />
        </mxCell>
        <mxCell id="LyMcBpUSQc7Vq5nO5CaE-13" value="银行" style="shape=umlActor;verticalLabelPosition=bottom;verticalAlign=top;html=1;" vertex="1" parent="LyMcBpUSQc7Vq5nO5CaE-1">
          <mxGeometry x="740" y="220" width="30" height="60" as="geometry" />
        </mxCell>
        <mxCell id="LyMcBpUSQc7Vq5nO5CaE-14" value="" style="endArrow=block;dashed=1;endFill=0;endSize=12;html=1;" edge="1" parent="LyMcBpUSQc7Vq5nO5CaE-1" source="LyMcBpUSQc7Vq5nO5CaE-3">
          <mxGeometry width="160" relative="1" as="geometry">
            <mxPoint x="70" y="380" as="sourcePoint" />
            <mxPoint x="80" y="380" as="targetPoint" />
          </mxGeometry>
        </mxCell>
        <mxCell id="LyMcBpUSQc7Vq5nO5CaE-15" value="" style="endArrow=block;dashed=1;endFill=0;endSize=12;html=1;" edge="1" parent="LyMcBpUSQc7Vq5nO5CaE-1" source="LyMcBpUSQc7Vq5nO5CaE-4">
          <mxGeometry width="160" relative="1" as="geometry">
            <mxPoint x="160" y="322.3529411764705" as="sourcePoint" />
            <mxPoint x="90" y="460" as="targetPoint" />
          </mxGeometry>
        </mxCell>
      </root>
    </mxGraphModel>
  </diagram>
  <diagram id="lyfsmRerWFFlxMGMcKNu" name="2-Logic View">
    <mxGraphModel dx="1422" dy="762" grid="1" gridSize="10" guides="1" tooltips="1" connect="1" arrows="1" fold="1" page="1" pageScale="1" pageWidth="827" pageHeight="1169" math="0" shadow="0">
      <root>
        <mxCell id="yf8fuM2IMbyO9gqX7g9k-0" />
        <mxCell id="yf8fuM2IMbyO9gqX7g9k-1" parent="yf8fuM2IMbyO9gqX7g9k-0" />
      </root>
    </mxGraphModel>
  </diagram>
  <diagram id="3W8QOtHNi5wlo4SvDQO_" name="3-Component View">
    <mxGraphModel dx="1422" dy="762" grid="1" gridSize="10" guides="1" tooltips="1" connect="1" arrows="1" fold="1" page="1" pageScale="1" pageWidth="827" pageHeight="1169" math="0" shadow="0">
      <root>
        <mxCell id="Mnh-E2XJ7UMVW1ggfKV0-0" />
        <mxCell id="Mnh-E2XJ7UMVW1ggfKV0-1" parent="Mnh-E2XJ7UMVW1ggfKV0-0" />
      </root>
    </mxGraphModel>
  </diagram>
  <diagram id="udnLZAHLFnSQ5CcSbPwE" name="4-Deployment View">
    <mxGraphModel dx="1422" dy="762" grid="1" gridSize="10" guides="1" tooltips="1" connect="1" arrows="1" fold="1" page="1" pageScale="1" pageWidth="827" pageHeight="1169" math="0" shadow="0">
      <root>
        <mxCell id="IBpDC6Xhl5teyvfx7FN8-0" />
        <mxCell id="IBpDC6Xhl5teyvfx7FN8-1" parent="IBpDC6Xhl5teyvfx7FN8-0" />
      </root>
    </mxGraphModel>
  </diagram>
</mxfile>
